STARTFONT 2.1
COMMENT copyright "Copyright (c) 1985,1987 Adobe Systems, Inc., Portions Copyright 1988 Digital Equipment Corp."
COMMENT Modified for ISO 8859-3 by Marko.Rauhamaa@tekelec.com
COMMENT Sorted/cleanup by wedler@users.sourceforge.net
FONT -adobe-helvetica-medium-r-normal--10-100-75-75-p-56-iso8859-3
SIZE 10 72 72
FONTBOUNDINGBOX 11 13 -1 -2
STARTPROPERTIES 25
FONT_ASCENT 10
FONT_DESCENT 2
DEFAULT_CHAR -1
RESOLUTION 75
QUAD_WIDTH 6
X_HEIGHT 6
POINT_SIZE 100
CAP_HEIGHT 8
COPYRIGHT "Copyright (c) 1985,1987 Adobe Systems, Inc., Portions Copyright 1988 Digital Equipment Corp."
FULL_NAME "Adobe Helvetica"
CHARSET_COLLECTIONS "ASCII ISO8859-3 ADOBE-STANDARD"
CHARSET_ENCODING "3"
CHARSET_REGISTRY "ISO8859"
AVERAGE_WIDTH 56
SPACING "P"
RESOLUTION_Y 75
RESOLUTION_X 75
PIXEL_SIZE 10
ADD_STYLE_NAME ""
SLANT "R"
SETWIDTH_NAME "Normal"
WEIGHT_NAME "Medium"
FOUNDRY "Adobe"
FAMILY_NAME "Helvetica"
FONTNAME_REGISTRY ""
ENDPROPERTIES
CHARS 190
STARTCHAR space
ENCODING 32
SWIDTH 42 0
DWIDTH 3 0
BBX 1 1 0 0
BITMAP
00
ENDCHAR
STARTCHAR exclam
ENCODING 33
SWIDTH 42 0
DWIDTH 3 0
BBX 1 8 1 0
BITMAP
80
80
80
80
80
80
00
80
ENDCHAR
STARTCHAR quotedbl
ENCODING 34
SWIDTH 42 0
DWIDTH 4 0
BBX 3 2 1 6
BITMAP
a0
a0
ENDCHAR
STARTCHAR numbersign
ENCODING 35
SWIDTH 42 0
DWIDTH 6 0
BBX 6 7 0 0
BITMAP
28
28
7c
28
f8
50
50
ENDCHAR
STARTCHAR dollar
ENCODING 36
SWIDTH 42 0
DWIDTH 6 0
BBX 5 9 0 -1
BITMAP
20
70
a8
a0
70
28
a8
70
20
ENDCHAR
STARTCHAR percent
ENCODING 37
SWIDTH 42 0
DWIDTH 9 0
BBX 8 8 0 0
BITMAP
64
94
68
08
10
16
29
26
ENDCHAR
STARTCHAR ampersand
ENCODING 38
SWIDTH 42 0
DWIDTH 8 0
BBX 6 8 1 0
BITMAP
20
50
50
60
a4
98
98
64
ENDCHAR
STARTCHAR quoteright
ENCODING 39
SWIDTH 42 0
DWIDTH 3 0
BBX 2 3 1 5
BITMAP
40
40
80
ENDCHAR
STARTCHAR parenleft
ENCODING 40
SWIDTH 42 0
DWIDTH 4 0
BBX 3 10 0 -2
BITMAP
20
40
40
80
80
80
80
40
40
20
ENDCHAR
STARTCHAR parenright
ENCODING 41
SWIDTH 42 0
DWIDTH 4 0
BBX 3 10 1 -2
BITMAP
80
40
40
20
20
20
20
40
40
80
ENDCHAR
STARTCHAR asterisk
ENCODING 42
SWIDTH 42 0
DWIDTH 4 0
BBX 3 3 0 5
BITMAP
a0
40
a0
ENDCHAR
STARTCHAR plus
ENCODING 43
SWIDTH 42 0
DWIDTH 6 0
BBX 5 5 0 1
BITMAP
20
20
f8
20
20
ENDCHAR
STARTCHAR comma
ENCODING 44
SWIDTH 42 0
DWIDTH 3 0
BBX 2 3 0 -2
BITMAP
40
40
80
ENDCHAR
STARTCHAR minus
ENCODING 45
SWIDTH 42 0
DWIDTH 7 0
BBX 5 1 1 3
BITMAP
f8
ENDCHAR
STARTCHAR period
ENCODING 46
SWIDTH 42 0
DWIDTH 3 0
BBX 1 1 1 0
BITMAP
80
ENDCHAR
STARTCHAR slash
ENCODING 47
SWIDTH 42 0
DWIDTH 3 0
BBX 3 8 0 0
BITMAP
20
20
40
40
40
40
80
80
ENDCHAR
STARTCHAR zero
ENCODING 48
SWIDTH 42 0
DWIDTH 6 0
BBX 5 8 0 0
BITMAP
70
88
88
88
88
88
88
70
ENDCHAR
STARTCHAR one
ENCODING 49
SWIDTH 42 0
DWIDTH 6 0
BBX 2 8 1 0
BITMAP
40
c0
40
40
40
40
40
40
ENDCHAR
STARTCHAR two
ENCODING 50
SWIDTH 42 0
DWIDTH 6 0
BBX 5 8 0 0
BITMAP
70
88
08
08
30
40
80
f8
ENDCHAR
STARTCHAR three
ENCODING 51
SWIDTH 42 0
DWIDTH 6 0
BBX 5 8 0 0
BITMAP
70
88
08
30
08
08
88
70
ENDCHAR
STARTCHAR four
ENCODING 52
SWIDTH 42 0
DWIDTH 6 0
BBX 5 8 0 0
BITMAP
10
30
50
50
90
f8
10
10
ENDCHAR
STARTCHAR five
ENCODING 53
SWIDTH 42 0
DWIDTH 6 0
BBX 5 8 0 0
BITMAP
f8
80
80
f0
08
08
88
70
ENDCHAR
STARTCHAR six
ENCODING 54
SWIDTH 42 0
DWIDTH 6 0
BBX 5 8 0 0
BITMAP
70
88
80
b0
c8
88
88
70
ENDCHAR
STARTCHAR seven
ENCODING 55
SWIDTH 42 0
DWIDTH 6 0
BBX 5 8 0 0
BITMAP
f8
08
10
10
20
20
40
40
ENDCHAR
STARTCHAR eight
ENCODING 56
SWIDTH 42 0
DWIDTH 6 0
BBX 5 8 0 0
BITMAP
70
88
88
70
88
88
88
70
ENDCHAR
STARTCHAR nine
ENCODING 57
SWIDTH 42 0
DWIDTH 6 0
BBX 5 8 0 0
BITMAP
70
88
88
98
68
08
88
70
ENDCHAR
STARTCHAR colon
ENCODING 58
SWIDTH 42 0
DWIDTH 3 0
BBX 1 6 1 0
BITMAP
80
00
00
00
00
80
ENDCHAR
STARTCHAR semicolon
ENCODING 59
SWIDTH 42 0
DWIDTH 3 0
BBX 2 8 0 -2
BITMAP
40
00
00
00
00
40
40
80
ENDCHAR
STARTCHAR less
ENCODING 60
SWIDTH 42 0
DWIDTH 6 0
BBX 3 5 1 1
BITMAP
20
40
80
40
20
ENDCHAR
STARTCHAR equal
ENCODING 61
SWIDTH 42 0
DWIDTH 5 0
BBX 4 3 0 2
BITMAP
f0
00
f0
ENDCHAR
STARTCHAR greater
ENCODING 62
SWIDTH 42 0
DWIDTH 6 0
BBX 3 5 1 1
BITMAP
80
40
20
40
80
ENDCHAR
STARTCHAR question
ENCODING 63
SWIDTH 42 0
DWIDTH 6 0
BBX 4 8 1 0
BITMAP
60
90
10
20
40
40
00
40
ENDCHAR
STARTCHAR at
ENCODING 64
SWIDTH 42 0
DWIDTH 11 0
BBX 10 10 0 -2
BITMAP
1f00
2080
4d40
9240
a240
a480
a480
9b00
4000
3e00
ENDCHAR
STARTCHAR A
ENCODING 65
SWIDTH 42 0
DWIDTH 7 0
BBX 7 8 0 0
BITMAP
10
10
28
28
44
7c
82
82
ENDCHAR
STARTCHAR B
ENCODING 66
SWIDTH 42 0
DWIDTH 7 0
BBX 5 8 1 0
BITMAP
f0
88
88
f0
88
88
88
f0
ENDCHAR
STARTCHAR C
ENCODING 67
SWIDTH 42 0
DWIDTH 8 0
BBX 6 8 1 0
BITMAP
78
84
80
80
80
80
84
78
ENDCHAR
STARTCHAR D
ENCODING 68
SWIDTH 42 0
DWIDTH 8 0
BBX 6 8 1 0
BITMAP
f0
88
84
84
84
84
88
f0
ENDCHAR
STARTCHAR E
ENCODING 69
SWIDTH 42 0
DWIDTH 7 0
BBX 5 8 1 0
BITMAP
f8
80
80
f8
80
80
80
f8
ENDCHAR
STARTCHAR F
ENCODING 70
SWIDTH 42 0
DWIDTH 6 0
BBX 5 8 1 0
BITMAP
f8
80
80
f0
80
80
80
80
ENDCHAR
STARTCHAR G
ENCODING 71
SWIDTH 42 0
DWIDTH 8 0
BBX 6 8 1 0
BITMAP
78
84
80
80
8c
84
8c
74
ENDCHAR
STARTCHAR H
ENCODING 72
SWIDTH 42 0
DWIDTH 8 0
BBX 6 8 1 0
BITMAP
84
84
84
fc
84
84
84
84
ENDCHAR
STARTCHAR I
ENCODING 73
SWIDTH 42 0
DWIDTH 3 0
BBX 1 8 1 0
BITMAP
80
80
80
80
80
80
80
80
ENDCHAR
STARTCHAR J
ENCODING 74
SWIDTH 42 0
DWIDTH 5 0
BBX 4 8 0 0
BITMAP
10
10
10
10
10
10
90
60
ENDCHAR
STARTCHAR K
ENCODING 75
SWIDTH 42 0
DWIDTH 7 0
BBX 5 8 1 0
BITMAP
88
90
a0
e0
90
90
88
88
ENDCHAR
STARTCHAR L
ENCODING 76
SWIDTH 42 0
DWIDTH 6 0
BBX 4 8 1 0
BITMAP
80
80
80
80
80
80
80
f0
ENDCHAR
STARTCHAR M
ENCODING 77
SWIDTH 42 0
DWIDTH 9 0
BBX 7 8 1 0
BITMAP
82
c6
c6
aa
aa
92
92
92
ENDCHAR
STARTCHAR N
ENCODING 78
SWIDTH 42 0
DWIDTH 8 0
BBX 6 8 1 0
BITMAP
c4
c4
a4
a4
94
94
8c
8c
ENDCHAR
STARTCHAR O
ENCODING 79
SWIDTH 42 0
DWIDTH 8 0
BBX 6 8 1 0
BITMAP
78
84
84
84
84
84
84
78
ENDCHAR
STARTCHAR P
ENCODING 80
SWIDTH 42 0
DWIDTH 7 0
BBX 5 8 1 0
BITMAP
f0
88
88
f0
80
80
80
80
ENDCHAR
STARTCHAR Q
ENCODING 81
SWIDTH 42 0
DWIDTH 8 0
BBX 7 9 1 -1
BITMAP
78
84
84
84
84
94
8c
7c
02
ENDCHAR
STARTCHAR R
ENCODING 82
SWIDTH 42 0
DWIDTH 7 0
BBX 5 8 1 0
BITMAP
f0
88
88
f0
88
88
88
88
ENDCHAR
STARTCHAR S
ENCODING 83
SWIDTH 42 0
DWIDTH 7 0
BBX 5 8 1 0
BITMAP
70
88
80
70
08
88
88
70
ENDCHAR
STARTCHAR T
ENCODING 84
SWIDTH 42 0
DWIDTH 5 0
BBX 5 8 0 0
BITMAP
f8
20
20
20
20
20
20
20
ENDCHAR
STARTCHAR U
ENCODING 85
SWIDTH 42 0
DWIDTH 8 0
BBX 6 8 1 0
BITMAP
84
84
84
84
84
84
84
78
ENDCHAR
STARTCHAR V
ENCODING 86
SWIDTH 42 0
DWIDTH 7 0
BBX 7 8 0 0
BITMAP
82
82
44
44
44
28
28
10
ENDCHAR
STARTCHAR W
ENCODING 87
SWIDTH 42 0
DWIDTH 9 0
BBX 9 8 0 0
BITMAP
8880
8880
4900
4900
5500
2200
2200
2200
ENDCHAR
STARTCHAR X
ENCODING 88
SWIDTH 42 0
DWIDTH 7 0
BBX 5 8 1 0
BITMAP
88
88
50
20
50
50
88
88
ENDCHAR
STARTCHAR Y
ENCODING 89
SWIDTH 42 0
DWIDTH 7 0
BBX 7 8 0 0
BITMAP
82
44
44
28
28
10
10
10
ENDCHAR
STARTCHAR Z
ENCODING 90
SWIDTH 42 0
DWIDTH 7 0
BBX 5 8 1 0
BITMAP
f8
08
10
20
20
40
80
f8
ENDCHAR
STARTCHAR bracketleft
ENCODING 91
SWIDTH 42 0
DWIDTH 3 0
BBX 2 10 1 -2
BITMAP
c0
80
80
80
80
80
80
80
80
c0
ENDCHAR
STARTCHAR backslash
ENCODING 92
SWIDTH 42 0
DWIDTH 3 0
BBX 3 8 0 0
BITMAP
80
80
40
40
40
40
20
20
ENDCHAR
STARTCHAR bracketright
ENCODING 93
SWIDTH 42 0
DWIDTH 3 0
BBX 2 10 0 -2
BITMAP
c0
40
40
40
40
40
40
40
40
c0
ENDCHAR
STARTCHAR asciicircum
ENCODING 94
SWIDTH 42 0
DWIDTH 6 0
BBX 5 5 0 3
BITMAP
20
20
50
50
88
ENDCHAR
STARTCHAR underscore
ENCODING 95
SWIDTH 42 0
DWIDTH 6 0
BBX 6 1 0 -2
BITMAP
fc
ENDCHAR
STARTCHAR quoteleft
ENCODING 96
SWIDTH 42 0
DWIDTH 3 0
BBX 2 3 0 5
BITMAP
40
80
80
ENDCHAR
STARTCHAR a
ENCODING 97
SWIDTH 42 0
DWIDTH 5 0
BBX 5 6 0 0
BITMAP
e0
10
70
90
90
68
ENDCHAR
STARTCHAR b
ENCODING 98
SWIDTH 42 0
DWIDTH 6 0
BBX 5 8 0 0
BITMAP
80
80
b0
c8
88
88
c8
b0
ENDCHAR
STARTCHAR c
ENCODING 99
SWIDTH 42 0
DWIDTH 5 0
BBX 4 6 0 0
BITMAP
60
90
80
80
90
60
ENDCHAR
STARTCHAR d
ENCODING 100
SWIDTH 42 0
DWIDTH 6 0
BBX 5 8 0 0
BITMAP
08
08
68
98
88
88
98
68
ENDCHAR
STARTCHAR e
ENCODING 101
SWIDTH 42 0
DWIDTH 5 0
BBX 4 6 0 0
BITMAP
60
90
f0
80
90
60
ENDCHAR
STARTCHAR f
ENCODING 102
SWIDTH 42 0
DWIDTH 4 0
BBX 4 8 0 0
BITMAP
30
40
e0
40
40
40
40
40
ENDCHAR
STARTCHAR g
ENCODING 103
SWIDTH 42 0
DWIDTH 6 0
BBX 5 8 0 -2
BITMAP
68
98
88
88
98
68
08
70
ENDCHAR
STARTCHAR h
ENCODING 104
SWIDTH 42 0
DWIDTH 6 0
BBX 5 8 0 0
BITMAP
80
80
b0
c8
88
88
88
88
ENDCHAR
STARTCHAR i
ENCODING 105
SWIDTH 42 0
DWIDTH 2 0
BBX 1 8 0 0
BITMAP
80
00
80
80
80
80
80
80
ENDCHAR
STARTCHAR j
ENCODING 106
SWIDTH 42 0
DWIDTH 2 0
BBX 1 9 0 -1
BITMAP
80
00
80
80
80
80
80
80
80
ENDCHAR
STARTCHAR k
ENCODING 107
SWIDTH 42 0
DWIDTH 5 0
BBX 4 8 0 0
BITMAP
80
80
90
a0
c0
a0
90
90
ENDCHAR
STARTCHAR l
ENCODING 108
SWIDTH 42 0
DWIDTH 2 0
BBX 1 8 0 0
BITMAP
80
80
80
80
80
80
80
80
ENDCHAR
STARTCHAR m
ENCODING 109
SWIDTH 42 0
DWIDTH 8 0
BBX 7 6 0 0
BITMAP
ec
92
92
92
92
92
ENDCHAR
STARTCHAR n
ENCODING 110
SWIDTH 42 0
DWIDTH 6 0
BBX 5 6 0 0
BITMAP
b0
c8
88
88
88
88
ENDCHAR
STARTCHAR o
ENCODING 111
SWIDTH 42 0
DWIDTH 6 0
BBX 5 6 0 0
BITMAP
70
88
88
88
88
70
ENDCHAR
STARTCHAR p
ENCODING 112
SWIDTH 42 0
DWIDTH 6 0
BBX 5 8 0 -2
BITMAP
b0
c8
88
88
c8
b0
80
80
ENDCHAR
STARTCHAR q
ENCODING 113
SWIDTH 42 0
DWIDTH 6 0
BBX 5 8 0 -2
BITMAP
68
98
88
88
98
68
08
08
ENDCHAR
STARTCHAR r
ENCODING 114
SWIDTH 42 0
DWIDTH 4 0
BBX 3 6 0 0
BITMAP
a0
c0
80
80
80
80
ENDCHAR
STARTCHAR s
ENCODING 115
SWIDTH 42 0
DWIDTH 5 0
BBX 4 6 0 0
BITMAP
60
90
60
10
90
60
ENDCHAR
STARTCHAR t
ENCODING 116
SWIDTH 42 0
DWIDTH 4 0
BBX 3 8 0 0
BITMAP
40
40
e0
40
40
40
40
60
ENDCHAR
STARTCHAR u
ENCODING 117
SWIDTH 42 0
DWIDTH 5 0
BBX 4 6 0 0
BITMAP
90
90
90
90
90
70
ENDCHAR
STARTCHAR v
ENCODING 118
SWIDTH 42 0
DWIDTH 6 0
BBX 5 6 0 0
BITMAP
88
88
50
50
20
20
ENDCHAR
STARTCHAR w
ENCODING 119
SWIDTH 42 0
DWIDTH 8 0
BBX 7 6 0 0
BITMAP
92
92
54
54
28
28
ENDCHAR
STARTCHAR x
ENCODING 120
SWIDTH 42 0
DWIDTH 6 0
BBX 5 6 0 0
BITMAP
88
50
20
50
88
88
ENDCHAR
STARTCHAR y
ENCODING 121
SWIDTH 42 0
DWIDTH 5 0
BBX 4 8 0 -2
BITMAP
90
90
a0
a0
60
40
40
80
ENDCHAR
STARTCHAR z
ENCODING 122
SWIDTH 42 0
DWIDTH 5 0
BBX 4 6 0 0
BITMAP
f0
10
20
40
80
f0
ENDCHAR
STARTCHAR braceleft
ENCODING 123
SWIDTH 42 0
DWIDTH 3 0
BBX 3 10 0 -2
BITMAP
20
40
40
40
80
40
40
40
40
20
ENDCHAR
STARTCHAR bar
ENCODING 124
SWIDTH 42 0
DWIDTH 3 0
BBX 1 10 1 -2
BITMAP
80
80
80
80
80
80
80
80
80
80
ENDCHAR
STARTCHAR braceright
ENCODING 125
SWIDTH 42 0
DWIDTH 3 0
BBX 3 10 0 -2
BITMAP
80
40
40
40
20
40
40
40
40
80
ENDCHAR
STARTCHAR asciitilde
ENCODING 126
SWIDTH 42 0
DWIDTH 7 0
BBX 6 2 0 3
BITMAP
64
98
ENDCHAR
STARTCHAR Hstroke
ENCODING 161
SWIDTH 42 0
DWIDTH 8 0
BBX 7 9 0 0
BITMAP
10
62
42
c2
7e
42
42
42
42
ENDCHAR
STARTCHAR breve
ENCODING 162
SWIDTH 42 0
DWIDTH 4 0
BBX 4 2 0 6
BITMAP
90
60
ENDCHAR
STARTCHAR sterling
ENCODING 163
SWIDTH 42 0
DWIDTH 6 0
BBX 5 8 0 0
BITMAP
30
48
40
e0
40
40
48
b0
ENDCHAR
STARTCHAR currency
ENCODING 164
SWIDTH 42 0
DWIDTH 5 0
BBX 4 6 0 1
BITMAP
90
60
90
90
60
90
ENDCHAR
STARTCHAR yen
ENCODING 165
SWIDTH 42 0
DWIDTH 6 0
BBX 5 8 0 0
BITMAP
88
88
50
50
f8
20
f8
20
ENDCHAR
STARTCHAR Hcircumflex
ENCODING 166
SWIDTH 42 0
DWIDTH 8 0
BBX 6 11 1 0
BITMAP
10
28
00
84
84
84
fc
84
84
84
84
ENDCHAR
STARTCHAR section
ENCODING 167
SWIDTH 42 0
DWIDTH 6 0
BBX 5 10 0 -2
BITMAP
70
88
c0
70
98
c8
70
18
88
70
ENDCHAR
STARTCHAR dieresis
ENCODING 168
SWIDTH 42 0
DWIDTH 3 0
BBX 3 1 0 7
BITMAP
a0
ENDCHAR
STARTCHAR Iabovedot
ENCODING 169
SWIDTH 42 0
DWIDTH 3 0
BBX 1 10 1 0
BITMAP
80
00
80
80
80
80
80
80
80
80
ENDCHAR
STARTCHAR Scedilla
ENCODING 170
SWIDTH 42 0
DWIDTH 7 0
BBX 5 10 1 -2
BITMAP
70
88
80
70
08
88
88
70
20
60
ENDCHAR
STARTCHAR Gbreve
ENCODING 171
SWIDTH 42 0
DWIDTH 8 0
BBX 6 11 1 0
BITMAP
48
30
00
78
84
80
80
8c
84
8c
74
ENDCHAR
STARTCHAR Jcircumflex
ENCODING 172
SWIDTH 42 0
DWIDTH 5 0
BBX 5 11 0 0
BITMAP
10
28
00
10
10
10
10
10
10
90
60
ENDCHAR
STARTCHAR hyphen
ENCODING 173
SWIDTH 42 0
DWIDTH 4 0
BBX 3 1 0 3
BITMAP
e0
ENDCHAR
STARTCHAR registered
ENCODING 174
SWIDTH 42 0
DWIDTH 9 0
BBX 7 7 1 0
BITMAP
38
44
ba
b2
aa
44
38
ENDCHAR
STARTCHAR Zabovedot
ENCODING 175
SWIDTH 42 0
DWIDTH 7 0
BBX 5 10 1 0
BITMAP
20
00
f8
08
10
20
20
40
80
f8
ENDCHAR
STARTCHAR degree
ENCODING 176
SWIDTH 42 0
DWIDTH 4 0
BBX 4 4 0 3
BITMAP
60
90
90
60
ENDCHAR
STARTCHAR hstroke
ENCODING 177
SWIDTH 42 0
DWIDTH 7 0
BBX 6 9 0 0
BITMAP
10
60
40
d8
64
44
44
44
44
ENDCHAR
STARTCHAR twosuperior
ENCODING 178
SWIDTH 42 0
DWIDTH 3 0
BBX 3 4 0 3
BITMAP
60
a0
40
e0
ENDCHAR
STARTCHAR threesuperior
ENCODING 179
SWIDTH 42 0
DWIDTH 3 0
BBX 3 4 0 3
BITMAP
e0
40
20
c0
ENDCHAR
STARTCHAR acute
ENCODING 180
SWIDTH 42 0
DWIDTH 3 0
BBX 2 2 0 6
BITMAP
40
80
ENDCHAR
STARTCHAR mu
ENCODING 181
SWIDTH 42 0
DWIDTH 5 0
BBX 4 8 0 -2
BITMAP
90
90
90
90
90
f0
80
80
ENDCHAR
STARTCHAR hcircumflex
ENCODING 182
SWIDTH 42 0
DWIDTH 6 0
BBX 5 11 0 0
BITMAP
20
50
00
80
80
b0
c8
88
88
88
88
ENDCHAR
STARTCHAR periodcentered
ENCODING 183
SWIDTH 42 0
DWIDTH 3 0
BBX 2 1 0 3
BITMAP
c0
ENDCHAR
STARTCHAR cedilla
ENCODING 184
SWIDTH 42 0
DWIDTH 3 0
BBX 2 2 0 -2
BITMAP
40
c0
ENDCHAR
STARTCHAR idotless
ENCODING 185
SWIDTH 42 0
DWIDTH 2 0
BBX 1 6 0 0
BITMAP
80
80
80
80
80
80
ENDCHAR
STARTCHAR scedilla
ENCODING 186
SWIDTH 42 0
DWIDTH 5 0
BBX 4 8 0 -2
BITMAP
60
90
60
10
90
60
20
60
ENDCHAR
STARTCHAR gbreve
ENCODING 187
SWIDTH 42 0
DWIDTH 6 0
BBX 5 11 0 -2
BITMAP
48
30
00
68
98
88
88
98
68
08
70
ENDCHAR
STARTCHAR jcircumflex
ENCODING 188
SWIDTH 42 0
DWIDTH 3 0
BBX 3 10 0 -1
BITMAP
40
a0
00
40
40
40
40
40
40
40
ENDCHAR
STARTCHAR onehalf
ENCODING 189
SWIDTH 42 0
DWIDTH 9 0
BBX 8 8 0 0
BITMAP
42
c4
44
48
0b
15
12
27
ENDCHAR
STARTCHAR threequarters
ENCODING 190
SWIDTH 42 0
DWIDTH 9 0
BBX 9 8 0 0
BITMAP
e200
4400
2400
c800
0900
1300
1780
2100
ENDCHAR
STARTCHAR zabovedot
ENCODING 191
SWIDTH 42 0
DWIDTH 5 0
BBX 4 8 0 0
BITMAP
20
00
f0
10
20
40
80
f0
ENDCHAR
STARTCHAR Agrave
ENCODING 192
SWIDTH 42 0
DWIDTH 7 0
BBX 7 11 0 0
BITMAP
20
10
00
10
10
28
28
44
7c
82
82
ENDCHAR
STARTCHAR Aacute
ENCODING 193
SWIDTH 42 0
DWIDTH 7 0
BBX 7 11 0 0
BITMAP
08
10
00
10
10
28
28
44
7c
82
82
ENDCHAR
STARTCHAR Acircumflex
ENCODING 194
SWIDTH 42 0
DWIDTH 7 0
BBX 7 11 0 0
BITMAP
10
28
00
10
10
28
28
44
7c
82
82
ENDCHAR
STARTCHAR Atilde
ENCODING 195
SWIDTH 42 0
DWIDTH 7 0
BBX 7 11 0 0
BITMAP
14
28
00
10
10
28
28
44
7c
82
82
ENDCHAR
STARTCHAR Adieresis
ENCODING 196
SWIDTH 42 0
DWIDTH 7 0
BBX 7 10 0 0
BITMAP
28
00
10
10
28
28
44
7c
82
82
ENDCHAR
STARTCHAR Cabovedot
ENCODING 197
SWIDTH 42 0
DWIDTH 8 0
BBX 6 10 1 0
BITMAP
10
00
78
84
80
80
80
80
84
78
ENDCHAR
STARTCHAR Ccircumflex
ENCODING 198
SWIDTH 42 0
DWIDTH 8 0
BBX 6 11 1 0
BITMAP
10
28
00
78
84
80
80
80
80
84
78
ENDCHAR
STARTCHAR Ccedilla
ENCODING 199
SWIDTH 42 0
DWIDTH 8 0
BBX 6 10 1 -2
BITMAP
78
84
80
80
80
80
84
78
10
30
ENDCHAR
STARTCHAR Egrave
ENCODING 200
SWIDTH 42 0
DWIDTH 7 0
BBX 5 11 1 0
BITMAP
40
20
00
f8
80
80
f8
80
80
80
f8
ENDCHAR
STARTCHAR Eacute
ENCODING 201
SWIDTH 42 0
DWIDTH 7 0
BBX 5 11 1 0
BITMAP
10
20
00
f8
80
80
f8
80
80
80
f8
ENDCHAR
STARTCHAR Ecircumflex
ENCODING 202
SWIDTH 42 0
DWIDTH 7 0
BBX 5 11 1 0
BITMAP
20
50
00
f8
80
80
80
f8
80
80
f8
ENDCHAR
STARTCHAR Edieresis
ENCODING 203
SWIDTH 42 0
DWIDTH 7 0
BBX 5 10 1 0
BITMAP
50
00
f8
80
80
f8
80
80
80
f8
ENDCHAR
STARTCHAR Igrave
ENCODING 204
SWIDTH 42 0
DWIDTH 3 0
BBX 2 11 0 0
BITMAP
80
40
00
40
40
40
40
40
40
40
40
ENDCHAR
STARTCHAR Iacute
ENCODING 205
SWIDTH 42 0
DWIDTH 3 0
BBX 2 11 1 0
BITMAP
40
80
00
80
80
80
80
80
80
80
80
ENDCHAR
STARTCHAR Icircumflex
ENCODING 206
SWIDTH 42 0
DWIDTH 3 0
BBX 3 11 0 0
BITMAP
40
a0
00
40
40
40
40
40
40
40
40
ENDCHAR
STARTCHAR Idieresis
ENCODING 207
SWIDTH 42 0
DWIDTH 3 0
BBX 3 10 0 0
BITMAP
a0
00
40
40
40
40
40
40
40
40
ENDCHAR
STARTCHAR Eth
ENCODING 208
SWIDTH 42 0
DWIDTH 8 0
BBX 7 8 0 0
BITMAP
78
44
42
f2
42
42
44
78
ENDCHAR
STARTCHAR Ntilde
ENCODING 209
SWIDTH 42 0
DWIDTH 8 0
BBX 6 11 1 0
BITMAP
28
50
00
c4
c4
a4
a4
94
94
8c
8c
ENDCHAR
STARTCHAR Ograve
ENCODING 210
SWIDTH 42 0
DWIDTH 8 0
BBX 6 11 1 0
BITMAP
20
10
00
78
84
84
84
84
84
84
78
ENDCHAR
STARTCHAR Oacute
ENCODING 211
SWIDTH 42 0
DWIDTH 8 0
BBX 6 11 1 0
BITMAP
08
10
00
78
84
84
84
84
84
84
78
ENDCHAR
STARTCHAR Ocircumflex
ENCODING 212
SWIDTH 42 0
DWIDTH 8 0
BBX 6 11 1 0
BITMAP
10
28
00
78
84
84
84
84
84
84
78
ENDCHAR
STARTCHAR Gabovedot
ENCODING 213
SWIDTH 42 0
DWIDTH 8 0
BBX 6 10 1 0
BITMAP
10
00
78
84
80
80
8c
84
8c
74
ENDCHAR
STARTCHAR Odieresis
ENCODING 214
SWIDTH 42 0
DWIDTH 8 0
BBX 6 10 1 0
BITMAP
48
00
78
84
84
84
84
84
84
78
ENDCHAR
STARTCHAR multiply
ENCODING 215
SWIDTH 42 0
DWIDTH 6 0
BBX 5 5 0 1
BITMAP
88
50
20
50
88
ENDCHAR
STARTCHAR Gcircumflex
ENCODING 216
SWIDTH 42 0
DWIDTH 8 0
BBX 6 11 1 0
BITMAP
10
28
00
78
84
80
80
8c
84
8c
74
ENDCHAR
STARTCHAR Ugrave
ENCODING 217
SWIDTH 42 0
DWIDTH 8 0
BBX 6 11 1 0
BITMAP
20
10
00
84
84
84
84
84
84
84
78
ENDCHAR
STARTCHAR Uacute
ENCODING 218
SWIDTH 42 0
DWIDTH 8 0
BBX 6 11 1 0
BITMAP
10
20
00
84
84
84
84
84
84
84
78
ENDCHAR
STARTCHAR Ucircumflex
ENCODING 219
SWIDTH 42 0
DWIDTH 8 0
BBX 6 11 1 0
BITMAP
10
28
00
84
84
84
84
84
84
84
78
ENDCHAR
STARTCHAR Udieresis
ENCODING 220
SWIDTH 42 0
DWIDTH 8 0
BBX 6 10 1 0
BITMAP
48
00
84
84
84
84
84
84
84
78
ENDCHAR
STARTCHAR Ubreve
ENCODING 221
SWIDTH 42 0
DWIDTH 8 0
BBX 6 11 1 0
BITMAP
48
30
00
84
84
84
84
84
84
84
78
ENDCHAR
STARTCHAR Scircumflex
ENCODING 222
SWIDTH 42 0
DWIDTH 7 0
BBX 5 11 1 0
BITMAP
20
50
00
70
88
80
70
08
88
88
70
ENDCHAR
STARTCHAR germandbls
ENCODING 223
SWIDTH 42 0
DWIDTH 5 0
BBX 4 8 0 0
BITMAP
60
90
90
a0
90
90
90
a0
ENDCHAR
STARTCHAR agrave
ENCODING 224
SWIDTH 42 0
DWIDTH 5 0
BBX 5 9 0 0
BITMAP
40
20
00
e0
10
70
90
90
68
ENDCHAR
STARTCHAR aacute
ENCODING 225
SWIDTH 42 0
DWIDTH 5 0
BBX 5 9 0 0
BITMAP
10
20
00
e0
10
70
90
90
68
ENDCHAR
STARTCHAR acircumflex
ENCODING 226
SWIDTH 42 0
DWIDTH 5 0
BBX 5 9 0 0
BITMAP
20
50
00
e0
10
70
90
90
68
ENDCHAR
STARTCHAR atilde
ENCODING 227
SWIDTH 42 0
DWIDTH 5 0
BBX 5 9 0 0
BITMAP
50
a0
00
e0
10
70
90
90
68
ENDCHAR
STARTCHAR adieresis
ENCODING 228
SWIDTH 42 0
DWIDTH 5 0
BBX 5 8 0 0
BITMAP
50
00
e0
10
70
90
90
68
ENDCHAR
STARTCHAR cabovedot
ENCODING 229
SWIDTH 42 0
DWIDTH 5 0
BBX 4 8 0 0
BITMAP
20
00
60
90
80
80
90
60
ENDCHAR
STARTCHAR ccircumflex
ENCODING 230
SWIDTH 42 0
DWIDTH 5 0
BBX 4 9 0 0
BITMAP
20
50
00
60
90
80
80
90
60
ENDCHAR
STARTCHAR ccedilla
ENCODING 231
SWIDTH 42 0
DWIDTH 5 0
BBX 4 8 0 -2
BITMAP
60
90
80
80
90
60
20
60
ENDCHAR
STARTCHAR egrave
ENCODING 232
SWIDTH 42 0
DWIDTH 5 0
BBX 4 9 0 0
BITMAP
40
20
00
60
90
f0
80
90
60
ENDCHAR
STARTCHAR eacute
ENCODING 233
SWIDTH 42 0
DWIDTH 5 0
BBX 4 9 0 0
BITMAP
20
40
00
60
90
f0
80
90
60
ENDCHAR
STARTCHAR ecircumflex
ENCODING 234
SWIDTH 42 0
DWIDTH 5 0
BBX 4 9 0 0
BITMAP
20
50
00
60
90
f0
80
90
60
ENDCHAR
STARTCHAR edieresis
ENCODING 235
SWIDTH 42 0
DWIDTH 5 0
BBX 4 8 0 0
BITMAP
50
00
60
90
f0
80
90
60
ENDCHAR
STARTCHAR igrave
ENCODING 236
SWIDTH 42 0
DWIDTH 2 0
BBX 2 9 -1 0
BITMAP
80
40
00
40
40
40
40
40
40
ENDCHAR
STARTCHAR iacute
ENCODING 237
SWIDTH 42 0
DWIDTH 2 0
BBX 2 9 0 0
BITMAP
40
80
00
80
80
80
80
80
80
ENDCHAR
STARTCHAR icircumflex
ENCODING 238
SWIDTH 42 0
DWIDTH 2 0
BBX 3 9 -1 0
BITMAP
40
a0
00
40
40
40
40
40
40
ENDCHAR
STARTCHAR idieresis
ENCODING 239
SWIDTH 42 0
DWIDTH 2 0
BBX 3 8 0 0
BITMAP
a0
00
40
40
40
40
40
40
ENDCHAR
STARTCHAR eth
ENCODING 240
SWIDTH 42 0
DWIDTH 6 0
BBX 5 9 0 0
BITMAP
50
60
90
78
88
88
88
88
70
ENDCHAR
STARTCHAR ntilde
ENCODING 241
SWIDTH 42 0
DWIDTH 5 0
BBX 4 9 0 0
BITMAP
50
a0
00
e0
90
90
90
90
90
ENDCHAR
STARTCHAR ograve
ENCODING 242
SWIDTH 42 0
DWIDTH 6 0
BBX 5 9 0 0
BITMAP
40
20
00
70
88
88
88
88
70
ENDCHAR
STARTCHAR oacute
ENCODING 243
SWIDTH 42 0
DWIDTH 6 0
BBX 5 9 0 0
BITMAP
10
20
00
70
88
88
88
88
70
ENDCHAR
STARTCHAR ocircumflex
ENCODING 244
SWIDTH 42 0
DWIDTH 6 0
BBX 5 9 0 0
BITMAP
20
50
00
70
88
88
88
88
70
ENDCHAR
STARTCHAR gabovedot
ENCODING 245
SWIDTH 42 0
DWIDTH 6 0
BBX 5 10 0 -2
BITMAP
20
00
68
98
88
88
98
68
08
70
ENDCHAR
STARTCHAR odieresis
ENCODING 246
SWIDTH 42 0
DWIDTH 6 0
BBX 5 8 0 0
BITMAP
50
00
70
88
88
88
88
70
ENDCHAR
STARTCHAR divide
ENCODING 247
SWIDTH 42 0
DWIDTH 6 0
BBX 5 5 0 1
BITMAP
20
00
f8
00
20
ENDCHAR
STARTCHAR gcircumflex
ENCODING 248
SWIDTH 42 0
DWIDTH 6 0
BBX 5 11 0 -2
BITMAP
20
50
00
68
98
88
88
98
68
08
70
ENDCHAR
STARTCHAR ugrave
ENCODING 249
SWIDTH 42 0
DWIDTH 5 0
BBX 4 9 0 0
BITMAP
40
20
00
90
90
90
90
90
70
ENDCHAR
STARTCHAR uacute
ENCODING 250
SWIDTH 42 0
DWIDTH 5 0
BBX 4 9 0 0
BITMAP
20
40
00
90
90
90
90
90
70
ENDCHAR
STARTCHAR ucircumflex
ENCODING 251
SWIDTH 42 0
DWIDTH 5 0
BBX 4 9 0 0
BITMAP
20
50
00
90
90
90
90
90
70
ENDCHAR
STARTCHAR udieresis
ENCODING 252
SWIDTH 42 0
DWIDTH 5 0
BBX 4 8 0 0
BITMAP
50
00
90
90
90
90
90
70
ENDCHAR
STARTCHAR ubreve
ENCODING 253
SWIDTH 42 0
DWIDTH 5 0
BBX 4 9 0 0
BITMAP
90
60
00
90
90
90
90
90
70
ENDCHAR
STARTCHAR scircumflex
ENCODING 254
SWIDTH 42 0
DWIDTH 5 0
BBX 4 9 0 0
BITMAP
20
50
00
60
90
60
10
90
60
ENDCHAR
STARTCHAR abovedot
ENCODING 255
SWIDTH 42 0
DWIDTH 3 0
BBX 1 1 1 7
BITMAP
80
ENDCHAR
ENDFONT
